<?xml version="1.0" encoding="UTF-8" standalone="no"?>
<svg width="207px" height="322px" viewBox="0 0 207 322" version="1.1" xmlns="http://www.w3.org/2000/svg" xmlns:xlink="http://www.w3.org/1999/xlink" xmlns:sketch="http://www.bohemiancoding.com/sketch/ns">
    <!-- Generator: Sketch 3.2.2 (9983) - http://www.bohemiancoding.com/sketch -->
    <title>Slice 1</title>
    <desc>Created with Sketch.</desc>
    <defs></defs>
    <g id="Page-1" stroke="none" stroke-width="1" fill="none" fill-rule="evenodd" sketch:type="MSPage">
        <g id="Imported-Layers" sketch:type="MSLayerGroup">
            <path d="M69.3891806,106.727858 C61.8729179,106.727858 55.7800119,112.822681 55.7800119,120.340547 C55.7800119,127.858413 61.8729179,133.953236 69.3891806,133.953236 C76.9060612,133.953236 82.9992761,127.858413 82.9992761,120.340547 C82.9992761,112.822681 76.9060612,106.727858 69.3891806,106.727858" id="Fill-1" fill="#787976" sketch:type="MSShapeGroup"></path>
            <path d="M137.428227,106.727858 C129.911964,106.727858 123.818131,112.822681 123.818131,120.340547 C123.818131,127.858413 129.911964,133.953236 137.428227,133.953236 C144.945107,133.953236 151.038322,127.858413 151.038322,120.340547 C151.038322,112.822681 144.945107,106.727858 137.428227,106.727858" id="Fill-2" fill="#82A83F" sketch:type="MSShapeGroup"></path>
            <path d="M103.364987,3.05281958 C31.2841881,3.05281958 19.9028955,47.7935144 19.9028955,56.1763301 L27.4905269,200.368054 L103.141303,205.436927 L179.239755,200.368054 L186.826769,56.1763301 C186.826769,47.7935144 175.445476,3.05281958 103.364987,3.05281958 L103.364987,3.05281958 Z M69.1417075,143.450073 C56.6145,143.450073 46.4591418,133.292549 46.4591418,120.762361 C46.4591418,108.232791 56.6145,98.0752668 69.1417075,98.0752668 C81.6692239,98.0752668 91.8239642,108.232791 91.8239642,120.762361 C91.8239642,133.292549 81.6692239,143.450073 69.1417075,143.450073 L69.1417075,143.450073 Z M137.428227,143.450073 C124.90071,143.450073 114.745661,133.292549 114.745661,120.762361 C114.745661,108.232791 124.90071,98.0752668 137.428227,98.0752668 C149.955434,98.0752668 160.110793,108.232791 160.110793,120.762361 C160.110793,133.292549 149.955434,143.450073 137.428227,143.450073 L137.428227,143.450073 Z" id="Fill-3" fill="#787976" sketch:type="MSShapeGroup"></path>
            <path d="M191.595801,139.445468 L188.641881,197.470054 C197.059057,197.470054 206.835018,184.480042 206.835018,168.457298 C206.835018,152.434862 200.01236,139.445777 191.595801,139.445468" id="Fill-4" fill="#A7A7A3" sketch:type="MSShapeGroup"></path>
            <path d="M15.2883403,139.445468 L18.6639851,197.470054 C10.2471179,197.470054 0.0488149254,184.480042 0.0488149254,168.457298 C0.0488149254,152.434862 6.87147313,139.445777 15.2883403,139.445468" id="Fill-5" fill="#A7A7A3" sketch:type="MSShapeGroup"></path>
            <path d="M82.9896985,307.501965 L123.739657,307.501965 L123.739657,321.837146 L82.9896985,321.837146 L82.9896985,307.501965 Z" id="Fill-6" fill="#787976" sketch:type="MSShapeGroup"></path>
            <path d="M195.104915,298.80982 L11.4647104,298.80982 L11.4647104,207.740679 L103.2723,215.138954 L195.104915,207.740679 L195.104915,298.80982" id="Fill-7" fill="#82A83F" sketch:type="MSShapeGroup"></path>
            <path d="M69.3891806,104.244873 C61.8729179,104.244873 55.7800119,110.339388 55.7800119,117.857562 C55.7800119,125.375119 61.8729179,131.469633 69.3891806,131.469633 C76.9060612,131.469633 82.9992761,125.375119 82.9992761,117.857562 C82.9992761,110.339388 76.9060612,104.244873 69.3891806,104.244873" id="Fill-8" fill="#91928E" sketch:type="MSShapeGroup"></path>
            <path d="M137.428227,104.244873 C129.911964,104.244873 123.818131,110.339388 123.818131,117.857562 C123.818131,125.375119 129.911964,131.469633 137.428227,131.469633 C144.945107,131.469633 151.038322,125.375119 151.038322,117.857562 C151.038322,110.339388 144.945107,104.244873 137.428227,104.244873" id="Fill-9" fill="#97C53E" sketch:type="MSShapeGroup"></path>
            <path d="M103.364987,0.147712092 C31.2841881,0.147712092 19.9028955,44.8884069 19.9028955,53.2709136 L27.4905269,197.462946 L103.141303,202.53182 L179.239755,197.462946 L186.826769,53.2709136 C186.826769,44.8884069 175.445476,0.147712092 103.364987,0.147712092 L103.364987,0.147712092 Z M69.1417075,140.544965 C56.6145,140.544965 46.4591418,130.387132 46.4591418,117.857562 C46.4591418,105.327374 56.6145,95.1701593 69.1417075,95.1701593 C81.6692239,95.1701593 91.8239642,105.327374 91.8239642,117.857562 C91.8239642,130.387132 81.6692239,140.544965 69.1417075,140.544965 L69.1417075,140.544965 Z M137.428227,140.544965 C124.90071,140.544965 114.745661,130.387132 114.745661,117.857562 C114.745661,105.327374 124.90071,95.1701593 137.428227,95.1701593 C149.955434,95.1701593 160.110793,105.327374 160.110793,117.857562 C160.110793,130.387132 149.955434,140.544965 137.428227,140.544965 L137.428227,140.544965 Z" id="Fill-10" fill="#91928E" sketch:type="MSShapeGroup"></path>
            <path d="M195.104915,296.538823 L11.4644015,296.538823 L11.4644015,205.469683 L103.271991,212.868576 L195.104915,205.469683 L195.104915,296.538823" id="Fill-11" fill="#97C53E" sketch:type="MSShapeGroup"></path>
            <path d="M191.715676,136.605873 L188.762064,194.63015 C197.17924,194.63015 206.954893,181.640756 206.954893,165.617702 C206.954893,149.595576 200.132543,136.606182 191.715676,136.605873" id="Fill-12" fill="#CACAC5" sketch:type="MSShapeGroup"></path>
            <path d="M15.2543552,136.605873 L18.629691,194.63015 C10.2128239,194.63015 0.0148298507,181.640756 0.0148298507,165.617702 C0.0148298507,149.595576 6.83748806,136.606182 15.2543552,136.605873" id="Fill-13" fill="#CACAC5" sketch:type="MSShapeGroup"></path>
            <path d="M82.9896985,305.394441 L123.739657,305.394441 L123.739657,319.729622 L82.9896985,319.729622 L82.9896985,305.394441 Z" id="Fill-14" fill="#91928E" sketch:type="MSShapeGroup"></path>
        </g>
    </g>
</svg>